<?xml version="1.0" standalone="no"?>
<!DOCTYPE svg PUBLIC "-//W3C//DTD SVG 20010904//EN"
 "http://www.w3.org/TR/2001/REC-SVG-20010904/DTD/svg10.dtd">
<svg version="1.0" xmlns="http://www.w3.org/2000/svg"
 width="150.000000pt" height="150.000000pt" viewBox="0 0 150.000000 150.000000"
 preserveAspectRatio="xMidYMid meet">
<metadata>
Created by potrace 1.11, written by Peter Selinger 2001-2013
</metadata>
<g transform="translate(0.000000,150.000000) scale(0.100000,-0.100000)"
fill="#000000" stroke="none">
<path d="M240 1380 l0 -40 -40 0 -40 0 0 -40 0 -40 -40 0 -40 0 0 -80 0 -80
-40 0 -40 0 0 -115 0 -115 120 0 120 0 0 80 0 80 40 0 40 0 0 -80 0 -80 35 0
c24 0 35 -5 35 -15 0 -12 -18 -15 -105 -15 l-105 0 0 -40 c0 -39 -1 -40 -35
-40 l-35 0 0 -115 0 -115 35 0 c34 0 35 -1 35 -40 0 -38 2 -40 30 -40 25 0 30
-4 30 -25 0 -14 5 -25 10 -25 6 0 10 -7 10 -15 0 -10 10 -15 30 -15 l30 0 0
-65 0 -65 35 0 c34 0 35 -1 35 -40 l0 -40 80 0 80 0 0 -40 0 -40 200 0 200 0
0 40 0 40 195 0 195 0 0 40 0 40 40 0 40 0 0 80 0 80 40 0 c39 0 40 1 40 35 0
34 -1 35 -40 35 l-40 0 0 40 0 40 -40 0 -40 0 0 120 0 120 -40 0 -40 0 0 40 0
40 -40 0 -40 0 0 80 0 80 -35 0 c-33 0 -35 2 -35 35 0 34 -1 35 -40 35 l-40 0
0 40 0 40 -40 0 -40 0 0 40 0 40 -40 0 -40 0 0 40 0 40 -120 0 -120 0 0 40 0
40 -195 0 -195 0 0 -40z m390 -80 l0 -40 80 0 80 0 0 -40 0 -40 80 0 80 0 0
-40 0 -40 -40 0 c-39 0 -40 -1 -40 -35 l0 -35 -160 0 -160 0 0 -40 0 -40 -80
0 -80 0 0 75 0 75 -115 0 -115 0 0 80 0 80 80 0 80 0 0 40 0 40 155 0 155 0 0
-40z m-470 -310 l0 -40 -40 0 -40 0 0 40 0 40 40 0 40 0 0 -40z m950 0 l0 -40
-40 0 -40 0 0 -40 0 -40 -80 0 -80 0 0 -40 0 -40 -120 0 -120 0 0 -40 c0 -36
-2 -40 -25 -40 -20 0 -25 5 -25 25 0 23 -4 25 -40 25 l-40 0 0 -40 0 -40 40 0
40 0 0 -75 0 -75 40 0 40 0 0 50 c0 47 2 50 25 50 23 0 25 4 25 40 l0 40 40 0
40 0 0 -40 0 -40 40 0 40 0 0 40 0 40 40 0 40 0 0 40 0 40 80 0 80 0 0 40 c0
39 1 40 35 40 34 0 35 -1 35 -40 l0 -40 40 0 40 0 0 -120 0 -120 -155 0 -155
0 0 -40 0 -40 235 0 235 0 0 -35 0 -35 -235 0 -235 0 0 -40 0 -40 195 0 195 0
0 -40 0 -40 -195 0 -195 0 0 -40 0 -40 -200 0 -200 0 0 40 0 40 -80 0 -80 0 0
65 0 65 55 0 55 0 0 40 0 40 -120 0 -120 0 0 40 0 40 -40 0 -40 0 0 115 0 115
160 0 160 0 0 40 c0 29 -4 40 -15 40 -8 0 -15 7 -15 15 0 12 16 15 80 15 l80
0 0 40 0 40 160 0 160 0 0 40 0 40 80 0 80 0 0 -40z"/>
<path d="M1110 710 l0 -80 35 0 35 0 0 80 0 80 -35 0 -35 0 0 -80z"/>
<path d="M870 590 l0 -40 40 0 40 0 0 40 0 40 -40 0 -40 0 0 -40z"/>
<path d="M500 490 l0 -40 40 0 40 0 0 40 0 40 -40 0 -40 0 0 -40z"/>
<path d="M870 435 c0 -34 -1 -35 -40 -35 l-40 0 0 -40 0 -40 40 0 40 0 0 -40
0 -40 40 0 40 0 0 40 0 40 -40 0 -40 0 0 40 0 40 40 0 c39 0 40 1 40 35 0 34
-1 35 -40 35 -39 0 -40 -1 -40 -35z"/>
</g>
</svg>
